<svg xmlns="http://www.w3.org/2000/svg" version="1.1" xmlns:xlink="http://www.w3.org/1999/xlink" xmlns:svgjs="http://svgjs.dev/svgjs" viewBox="0 0 800 800"><defs><linearGradient x1="50%" y1="0%" x2="50%" y2="100%" id="ccchaos-grad"><stop stop-color="hsl(230, 55%, 50%)" stop-opacity="1" offset="0%"></stop><stop stop-color="hsl(230, 55%, 70%)" stop-opacity="1" offset="100%"></stop></linearGradient></defs><g stroke-width="2" stroke="url(#ccchaos-grad)" fill="none" stroke-linecap="round"><path d="M406.92 124.54C416.96 126.62 427.21 128.39 437.66 129.8 448.14 130.34 458.81 130.55 469.66 130.52 480.51 129.85 491.49 129.21 502.53 128.75 513.51 128.15 524.44 128.06 535.19 128.63 545.71 129.53 555.87 131.33 565.48 134.08 574.59 137.42 582.91 141.78 590.23 147.11 596.79 153.05 602.14 159.87 606.16 167.45 609.34 175.48 611.2 184.09 611.78 193.17 611.87 202.46 611.09 212.04 609.71 221.8 608.72 231.57 607.88 241.41 607.64 251.27 608.9 260.99 611.51 270.7 615.79 280.36 622.23 289.85 630.53 299.31 640.54 308.76 652.17 318.05 664.73 327.37 677.55 336.75 690.13 346.01 701.46 355.38 710.73 364.89 717.61 374.33 721.23 383.95 721.24 393.76 718.14 403.55 711.66 413.56 702.31 423.79 691.52 434.01 679.86 444.21 668.4 454.36 658.32 464.49 650.01 474.54 643.98 484.43 640.82 494.27 640.15 503.89 641.66 513.22 645.43 522.4 650.36 531.18 655.75 539.47 661.57 547.49 666.54 554.9 670.12 561.6 672.6 570.7 663.85 584.15 652.9 588.46 643.54 590.83 632.79 592.52 621.07 593.66 608.74 594.95 596.02 596.03 583.23 597.12 570.53 598.92 558.12 601.16 546.15 604.07 534.61 608.21 523.6 613.35 513.1 619.57 503.08 627.19 493.48 635.87 484.22 645.45 475.32 655.95 466.6 666.83 457.98 677.68 449.55 688.34 441.08 698.09 432.5 706.44 424 713.31 415.31 718 406.41 720.19 397.51 720.21 388.37 717.58 379 712.4 369.62 705.53 360.24 697.01 350.9 687.43 341.6 677.7 332.38 667.98 323.31 658.8 314.31 650.85 305.53 644.11 297.02 638.76 288.64 635.21 280.6 633.06 272.96 632.14 265.47 632.7 258.43 633.98 251.86 635.65 242.44 638.95 225.91 642.78 218.59 641.91 213.67 640.18 208.94 637.11 204.33 632.74 199.35 627.5 194.35 621.05 189.28 613.53 183.69 605.32 177.97 596.26 172.12 586.53 165.81 576.39 159.46 565.8 153.16 554.94 146.68 543.89 140.48 532.72 134.7 521.53 129.15 510.32 124.28 499.18 120.23 488.17 116.72 477.19 114.17 466.37 112.63 455.75 111.65 445.16 111.59 434.75 112.4 424.55 113.43 414.37 115.03 404.37 117.06 394.58 118.82 384.78 120.66 375.41 122.47 366.46 123.7 357.49 124.82 348.92 125.85 340.77 126.38 332.58 126.98 324.78 127.78 317.36 128.43 309.89 129.54 302.76 131.24 295.96 133.21 289.04 135.99 282.39 139.61 275.96 143.75 269.33 148.78 262.83 154.67 256.41 161.05 249.68 168.17 242.93 175.9 236.13 183.91 228.91 192.35 221.56 201.08 214.07 209.82 206.16 218.7 198.11 227.62 189.97 236.33 181.54 245.02 173.14 253.64 164.88 261.97 156.62 270.25 148.72 278.5 141.36 286.45 134.36 294.44 128.15 302.51 122.87 310.35 118.27 318.34 114.78 326.52 112.46 334.56 110.88 342.86 110.44 351.46 111.07 359.98 112.18 368.84 114.09 378.07 116.64 387.27 119.1 396.88 121.8 406.91 124.54" stroke-dasharray="9 0" transform="rotate(0, 400, 400)" opacity="0.44"></path><path d="M413.55 135.85C423.34 137.91 433.3 139.7 443.38 141.15 453.47 141.78 463.69 142.08 473.97 142.15 484.22 141.58 494.5 141.01 504.7 140.56 514.79 139.92 524.69 139.71 534.27 140.08 543.57 140.68 552.37 142.09 560.52 144.35 568.18 147.14 574.97 150.88 580.77 155.54 585.9 160.78 589.91 166.88 592.73 173.76 594.95 181.11 596.08 189.09 596.25 197.58 596.23 206.35 595.66 215.48 594.85 224.87 594.66 234.34 594.89 243.95 595.91 253.64 598.45 263.28 602.36 272.94 607.84 282.58 615.23 292.11 624.21 301.62 634.58 311.1 646.19 320.47 658.39 329.85 670.56 339.24 682.25 348.54 692.6 357.91 700.86 367.34 706.85 376.72 709.79 386.21 709.4 395.81 706.21 405.4 699.94 415.13 691.06 424.97 680.85 434.82 669.82 444.56 658.86 454.16 649.08 463.73 640.81 473.14 634.5 482.31 630.77 491.42 629.29 500.23 629.85 508.67 632.6 516.98 636.59 524.82 641.23 532.13 646.53 539.21 651.34 545.67 655.14 551.43 658.7 559.27 654.1 570.79 645.76 574.58 638.17 576.82 629.11 578.56 618.89 579.95 607.9 581.63 596.26 583.28 584.29 585.08 572.16 587.66 560.07 590.75 548.19 594.54 536.55 599.5 525.27 605.38 514.41 612.23 503.91 620.3 493.8 629.23 484.05 638.85 474.61 649.18 465.42 659.69 456.42 670 447.61 680.01 438.88 689.04 430.17 696.66 421.55 702.87 412.86 707.02 404.1 708.83 395.36 708.66 386.49 706.06 377.51 701.09 368.53 694.59 359.64 686.54 350.89 677.47 342.16 668.2 333.58 658.85 325.23 649.89 316.93 641.99 308.88 635.09 301.15 629.4 293.51 625.33 286.22 622.53 279.33 620.88 272.54 620.66 266.15 621.2 260.2 622.23 251.55 624.82 236.03 628.55 228.91 628.34 224.02 627.34 219.23 625.17 214.48 621.84 209.33 617.77 204.1 612.56 198.77 606.31 192.96 599.4 187.01 591.62 180.96 583.11 174.52 574.15 168.08 564.66 161.76 554.77 155.33 544.65 149.23 534.3 143.62 523.84 138.27 513.28 133.64 502.71 129.85 492.19 126.61 481.67 124.31 471.25 123.01 460.97 122.25 450.72 122.38 440.62 123.33 430.71 124.5 420.81 126.21 411.1 128.32 401.58 130.16 392.07 132.06 382.96 133.92 374.27 135.2 365.55 136.35 357.22 137.4 349.28 137.92 341.29 138.48 333.66 139.17 326.36 139.67 318.99 140.57 311.91 141.98 305.1 143.6 298.15 145.95 291.41 149.09 284.82 152.7 278.02 157.18 271.29 162.49 264.6 168.31 257.59 174.88 250.54 182.11 243.41 189.68 235.91 197.75 228.3 206.19 220.56 214.74 212.49 223.49 204.33 232.38 196.14 241.15 187.77 249.95 179.5 258.74 171.46 267.3 163.5 275.82 155.97 284.31 149.03 292.56 142.51 300.81 136.79 309.09 132.01 317.16 127.89 325.34 124.84 333.65 122.91 341.81 121.67 350.18 121.48 358.78 122.3 367.3 123.52 376.1 125.49 385.22 128.04 394.3 130.48 403.74 133.14 413.53 135.85" stroke-dasharray="10 5" transform="rotate(4.04, 400, 400)" opacity="0.40"></path><path d="M418.68 147.15C428.2 149.21 437.78 151.01 447.41 152.49 457.03 153.2 466.67 153.6 476.26 153.76 485.81 153.31 495.26 152.82 504.51 152.41 513.61 151.76 522.4 151.47 530.76 151.67 538.83 152.02 546.31 153.09 553.07 154.92 559.38 157.2 564.84 160.35 569.34 164.36 573.32 168.91 576.31 174.3 578.3 180.46 579.91 187.08 580.7 194.37 580.82 202.2 581.01 210.36 580.95 218.93 580.93 227.83 581.71 236.87 583.09 246.13 585.36 255.51 589.13 264.92 594.2 274.39 600.69 283.88 608.84 293.32 618.29 302.76 628.81 312.18 640.24 321.53 651.95 330.87 663.37 340.2 674.16 349.47 683.51 358.75 690.8 368.05 695.95 377.32 698.27 386.64 697.53 395.99 694.28 405.34 688.23 414.74 679.8 424.19 670.18 433.63 659.74 442.89 649.3 451.92 639.85 460.93 631.65 469.7 625.16 478.15 620.94 486.55 618.73 494.59 618.42 502.21 620.19 509.7 623.22 516.71 627.04 523.16 633.95 532.26 644.23 546.96 645.45 552.51 643.05 557.23 627.53 564.14 615.23 566.92 605.74 569.12 595.42 571.41 584.54 573.97 573.32 577.33 561.9 581.25 550.48 585.85 539.1 591.53 527.92 598.04 517.01 605.38 506.34 613.75 495.98 622.8 485.95 632.36 476.16 642.41 466.65 652.47 457.37 662.21 448.27 671.53 439.32 679.85 430.49 686.77 421.76 692.35 413.07 695.98 404.41 697.44 395.78 697.11 387.14 694.53 378.49 689.79 369.85 683.64 361.4 676.05 353.16 667.48 344.93 658.67 336.93 649.71 329.2 641.01 321.5 633.19 314.1 626.21 307.03 620.25 300.01 615.74 293.34 612.36 287.05 610.04 277.86 608.98 261.28 611.01 253.76 612.69 246.29 614.19 231.7 613.14 224.26 609.92 218.88 606.85 213.4 602.73 207.8 597.63 201.76 591.94 195.61 585.38 189.39 578.06 182.87 570.3 176.4 561.94 170.11 553.11 163.79 544.01 157.86 534.58 152.45 524.95 147.36 515.18 143.01 505.31 139.5 495.41 136.54 485.47 134.51 475.56 133.45 465.74 132.9 455.92 133.21 446.21 134.3 436.65 135.59 427.1 137.39 417.69 139.57 408.46 141.48 399.23 143.44 390.38 145.35 381.91 146.68 373.42 147.88 365.27 148.96 357.47 149.49 349.62 150.03 342.08 150.65 334.83 151.04 327.49 151.76 320.39 152.91 313.49 154.21 306.45 156.17 299.55 158.84 292.77 161.94 285.75 165.85 278.78 170.57 271.81 175.78 264.54 181.75 257.22 188.41 249.81 195.45 242.1 203.04 234.29 211.07 226.4 219.28 218.25 227.79 210.08 236.49 201.95 245.18 193.73 253.97 185.68 262.79 177.94 271.47 170.35 280.14 163.26 288.79 156.79 297.26 150.77 305.72 145.57 314.19 141.29 322.49 137.66 330.84 135.04 339.27 133.48 347.58 132.55 356.03 132.61 364.64 133.59 373.19 134.92 381.94 136.92 390.94 139.46 399.91 141.88 409.15 144.49 418.67 147.15" stroke-dasharray="4 8" transform="rotate(8.08, 400, 400)" opacity="0.94"></path><path d="M421.75 158.46C430.94 160.49 440.09 162.3 449.18 163.82 458.27 164.6 467.25 165.1 476.09 165.37 484.87 165.03 493.42 164.64 501.67 164.29 509.77 163.66 517.46 163.33 524.63 163.4 534.67 163.94 550.7 168.9 556.39 173.61 560.68 179.84 565.11 196.77 565.89 207.18 566.57 214.64 567.25 222.58 568.17 230.88 570 239.38 572.54 248.15 576.01 257.11 580.89 266.15 586.96 275.3 594.27 284.51 602.95 293.73 612.67 302.97 623.16 312.2 634.25 321.41 645.36 330.6 655.97 339.77 665.82 348.91 674.19 358.04 680.57 367.14 684.93 376.22 686.68 385.31 685.64 394.37 682.34 403.43 676.53 412.48 668.55 421.49 659.49 430.5 649.64 439.26 639.73 447.74 630.62 456.19 622.56 464.33 615.93 472.12 611.31 479.85 608.47 487.18 607.36 494.06 608.19 500.84 610.29 507.12 613.25 512.87 619.19 520.99 629.35 534.16 631.53 539.25 630.81 543.8 619.77 551.27 609.9 554.77 601.99 557.56 593.12 560.54 583.54 563.87 573.48 567.98 563.02 572.65 552.36 577.97 541.59 584.25 530.84 591.26 520.21 598.96 509.68 607.49 499.37 616.54 489.31 625.91 479.42 635.6 469.77 645.16 460.38 654.28 451.12 662.92 442.06 670.52 433.18 676.76 424.39 681.73 415.72 684.88 407.17 686.03 398.64 685.54 390.2 683 381.85 678.48 373.49 672.69 365.41 665.54 357.61 657.46 349.8 649.11 342.28 640.55 335.07 632.15 327.87 624.46 320.98 617.45 314.44 611.3 307.9 606.42 301.7 602.54 295.85 599.62 287.2 597.51 271.33 597.6 263.94 598.63 256.43 599.87 241.36 599.48 233.54 597.16 227.9 594.88 222.16 591.67 216.3 587.57 210.07 582.97 203.76 577.53 197.43 571.34 190.88 564.73 184.45 557.49 178.24 549.73 172.09 541.69 166.38 533.24 161.23 524.51 156.43 515.62 152.39 506.54 149.19 497.35 146.53 488.09 144.78 478.79 143.96 469.51 143.62 460.21 144.1 450.96 145.32 441.81 146.72 432.65 148.59 423.6 150.83 414.68 152.8 405.75 154.8 397.15 156.75 388.88 158.15 380.59 159.4 372.6 160.51 364.9 161.09 357.15 161.63 349.66 162.21 342.39 162.52 335.04 163.1 327.87 164.04 320.85 165.06 313.69 166.66 306.62 168.9 299.61 171.5 292.4 174.86 285.19 178.98 277.97 183.56 270.49 188.9 262.95 194.92 255.35 201.35 247.49 208.37 239.58 215.87 231.64 223.63 223.52 231.75 215.44 240.14 207.47 248.6 199.49 257.22 191.76 265.93 184.39 274.58 177.25 283.28 170.64 291.97 164.68 300.55 159.19 309.13 154.51 317.7 150.74 326.15 147.58 334.63 145.38 343.14 144.18 351.56 143.55 360.06 143.82 368.66 144.94 377.2 146.36 385.89 148.39 394.73 150.91 403.55 153.29 412.55 155.85 421.74 158.46" stroke-dasharray="5 9" transform="rotate(12.12, 400, 400)" opacity="0.12"></path><path d="M422.43 169.76C431.23 171.77 439.9 173.58 448.41 175.13 456.91 175.98 465.21 176.58 473.26 176.96 481.24 176.75 488.91 176.46 496.19 176.19 503.33 175.61 509.99 175.27 516.11 175.26 524.61 175.53 537.86 179.39 542.46 183.3 546.07 188.57 550.42 203.34 551.87 212.62 553.24 219.35 554.79 226.58 556.74 234.21 559.63 242.08 563.28 250.26 567.84 258.68 573.67 267.22 580.54 275.92 588.46 284.73 597.48 293.59 607.26 302.5 617.54 311.43 628.15 320.37 638.57 329.31 648.33 338.21 657.24 347.12 664.66 355.99 670.15 364.82 673.79 373.64 675.02 382.42 673.72 391.14 670.41 399.86 664.83 408.52 657.29 417.09 648.78 425.66 639.52 433.92 630.12 441.86 621.39 449.77 613.5 457.33 606.82 464.51 601.88 471.64 598.5 478.35 596.66 484.61 597.22 493.64 604.76 509.09 609.69 515.48 615.9 526.09 610.4 539.31 602.8 543.65 596.46 547.07 589.1 550.75 580.92 554.8 572.18 559.6 562.9 564.93 553.26 570.85 543.37 577.61 533.34 584.97 523.28 592.89 513.2 601.46 503.22 610.38 493.4 619.47 483.66 628.72 474.11 637.73 464.79 646.21 455.56 654.14 446.53 661.05 437.7 666.63 428.94 671.03 420.35 673.73 411.94 674.59 403.55 673.97 395.3 671.48 387.2 667.18 379.1 661.72 371.33 655.02 363.88 647.41 356.42 639.53 349.28 631.38 342.47 623.29 335.64 615.78 329.14 608.81 322.96 602.54 316.76 597.37 310.87 593.06 305.29 589.62 296.96 586.54 281.34 584.68 273.87 584.96 266.16 585.74 250.41 585.49 242.17 583.77 236.28 582.08 230.3 579.6 224.23 576.32 217.85 572.65 211.45 568.19 205.08 563.01 198.57 557.47 192.24 551.29 186.19 544.56 180.28 537.55 174.83 530.1 169.98 522.3 165.52 514.32 161.81 506.08 158.93 497.66 156.59 489.15 155.12 480.53 154.53 471.85 154.4 463.14 155.04 454.41 156.38 445.7 157.87 437 159.81 428.33 162.08 419.73 164.1 411.13 166.15 402.79 168.14 394.71 169.59 386.62 170.9 378.77 172.07 371.15 172.69 363.49 173.26 356.02 173.84 348.72 174.11 341.34 174.58 334.08 175.35 326.94 176.13 319.66 177.42 312.43 179.27 305.24 181.4 297.86 184.23 290.47 187.77 283.05 191.72 275.43 196.4 267.76 201.76 260.05 207.52 252.16 213.9 244.25 220.79 236.36 227.98 228.38 235.59 220.49 243.52 212.79 251.6 205.15 259.9 197.81 268.35 190.89 276.82 184.24 285.38 178.16 293.98 172.74 302.52 167.8 311.09 163.65 319.65 160.37 328.14 157.67 336.64 155.88 345.15 155.01 353.59 154.65 362.07 155.11 370.59 156.36 379.08 157.84 387.64 159.88 396.28 162.37 404.9 164.71 413.62 167.21 422.42 169.76" stroke-dasharray="9 5" transform="rotate(16.16, 400, 400)" opacity="0.99"></path><path d="M420.64 181.07C429.01 183.05 437.16 184.85 445.07 186.42 452.95 187.35 460.56 188.04 467.85 188.52 475.07 188.44 481.91 188.28 488.32 188.1 497.49 187.44 512.9 187.3 518.97 188.34 524.16 190.24 531.54 197.81 534.08 203.54 535.83 207.96 537.44 213.02 539.06 218.66 541.24 224.63 543.73 231.11 546.71 238.02 550.62 245.18 555.27 252.69 560.77 260.47 567.36 268.41 574.84 276.56 583.15 284.85 592.29 293.22 601.96 301.69 611.87 310.2 621.9 318.75 631.55 327.32 640.42 335.87 648.39 344.43 654.89 352.96 659.56 361.43 662.53 369.91 663.3 378.33 661.77 386.66 658.48 394.99 653.14 403.23 646.04 411.34 638.06 419.45 629.37 427.23 620.5 434.65 612.15 442.06 604.48 449.1 597.8 455.74 592.62 462.35 588.79 468.54 586.32 474.3 585.66 482.64 590.74 497.01 594.83 503.08 601.28 513.77 599.49 528.45 593.94 533.67 589.07 537.71 583.18 542.04 576.43 546.76 569.1 552.16 561.11 558.04 552.64 564.43 543.85 571.52 534.76 579.1 525.51 587.1 516.15 595.58 506.76 604.27 497.42 612.99 488.09 621.74 478.87 630.15 469.81 637.96 460.8 645.21 451.96 651.43 443.32 656.39 434.72 660.24 426.3 662.53 418.07 663.12 409.86 662.39 401.82 659.96 393.96 655.87 386.1 650.75 378.59 644.47 371.42 637.34 364.24 629.92 357.39 622.19 350.86 614.44 344.3 607.15 338.05 600.26 332.11 593.94 326.11 588.56 320.39 583.91 314.93 580.01 306.7 576.06 290.96 572.31 283.25 571.77 275.24 571.95 258.72 571.38 250.08 569.98 243.98 568.69 237.8 566.73 231.58 564.09 225.13 561.16 218.7 557.52 212.36 553.22 205.97 548.61 199.82 543.38 194.01 537.6 188.38 531.58 183.26 525.08 178.75 518.17 174.65 511.11 171.3 503.72 168.76 496.09 166.73 488.36 165.54 480.45 165.19 472.4 165.25 464.32 166.04 456.16 167.48 447.94 169.04 439.72 171.03 431.47 173.34 423.22 175.39 414.97 177.47 406.91 179.49 399.04 181.01 391.16 182.38 383.46 183.6 375.92 184.3 368.34 184.92 360.9 185.51 353.58 185.77 346.19 186.18 338.87 186.83 331.63 187.42 324.26 188.44 316.92 189.95 309.59 191.67 302.11 194.01 294.62 196.99 287.1 200.34 279.43 204.37 271.73 209.04 264.02 214.11 256.2 219.79 248.4 226 240.68 232.54 232.94 239.52 225.36 246.88 218.01 254.44 210.79 262.27 203.92 270.31 197.5 278.44 191.39 286.71 185.87 295.05 181.01 303.41 176.62 311.81 173 320.22 170.21 328.61 167.95 337 166.53 345.39 165.97 353.75 165.85 362.11 166.49 370.47 167.84 378.81 169.37 387.17 171.41 395.53 173.86 403.89 176.14 412.26 178.58 420.63 181.07" stroke-dasharray="1 10" transform="rotate(20.200000000000003, 400, 400)" opacity="0.36"></path><path d="M416.58 192.37C424.47 194.32 432.09 196.11 439.4 197.7 446.69 198.69 453.65 199.47 460.23 200.06 469.82 200.09 486.66 199.46 493.76 199.26 505.23 200.32 517.68 207.57 520.74 212.38 524.15 218.3 532.48 233.44 538.14 242.46 542.95 248.86 548.46 255.65 554.71 262.73 561.86 270 569.73 277.5 578.2 285.18 587.29 292.97 596.66 300.89 606.08 308.88 615.42 316.93 624.25 325.03 632.23 333.12 639.27 341.24 644.9 349.35 648.8 357.39 651.15 365.46 651.51 373.45 649.8 381.35 646.54 389.25 641.46 397.05 634.78 404.69 627.33 412.34 619.2 419.65 610.84 426.61 602.9 433.55 595.48 440.13 588.86 446.32 583.52 452.49 579.33 458.27 576.33 463.65 574.56 471.49 577.22 485.22 580.35 491.2 586.45 502.35 587.25 518.81 583.43 524.9 579.87 529.52 575.34 534.44 569.95 539.72 564.01 545.6 557.36 551.9 550.13 558.63 542.55 565.92 534.56 573.57 526.3 581.51 517.85 589.79 509.26 598.15 500.61 606.42 491.9 614.62 483.22 622.4 474.61 629.54 466.02 636.1 457.54 641.66 449.21 646.03 440.9 649.37 432.74 651.27 424.76 651.63 416.8 650.81 409 648.44 401.38 644.57 393.76 639.77 386.49 633.9 379.54 627.23 372.58 620.27 365.94 612.97 359.6 605.58 353.21 598.55 347.11 591.8 341.28 585.49 335.38 579.97 329.71 575.06 324.25 570.8 315.96 566.08 299.82 560.54 291.8 559.16 283.43 558.63 266.17 557.38 257.2 556.04 250.94 554.96 244.65 553.34 238.37 551.15 231.92 548.77 225.55 545.77 219.34 542.18 213.15 538.35 207.25 533.94 201.73 529 196.45 523.85 191.7 518.22 187.57 512.16 183.86 505.96 180.88 499.4 178.68 492.53 176.98 485.58 176.06 478.38 175.93 470.99 176.17 463.56 177.09 455.97 178.62 448.27 180.25 440.56 182.27 432.75 184.59 424.88 186.67 417 188.77 409.24 190.82 401.6 192.4 393.95 193.83 386.42 195.12 378.99 195.9 371.53 196.58 364.15 197.22 356.84 197.5 349.47 197.89 342.15 198.45 334.85 198.91 327.47 199.72 320.09 200.94 312.71 202.3 305.22 204.2 297.71 206.67 290.19 209.45 282.58 212.85 274.96 216.85 267.38 221.22 259.74 226.18 252.17 231.67 244.73 237.49 237.33 243.78 230.14 250.47 223.24 257.4 216.51 264.64 210.16 272.14 204.3 279.77 198.76 287.59 193.81 295.53 189.52 303.53 185.68 311.61 182.58 319.72 180.25 327.86 178.41 336.01 177.35 344.14 177.07 352.28 177.17 360.41 177.96 368.5 179.38 376.6 180.95 384.66 182.97 392.68 185.36 400.7 187.58 408.67 189.95 416.57 192.37" stroke-dasharray="1 5" transform="rotate(24.24, 400, 400)" opacity="0.23"></path><path d="M410.69 203.68C418.09 205.59 425.17 207.36 431.92 208.96 438.64 210.01 445.01 210.88 450.99 211.56 459.69 211.79 474.87 211.5 481.28 211.37 492.03 212.09 504.97 217.85 508.81 221.84 513.22 226.79 524.03 239.79 530.98 247.68 536.55 253.32 542.72 259.35 549.51 265.7 557.01 272.23 565.05 279.03 573.5 286.04 582.34 293.17 591.29 300.46 600.09 307.85 608.68 315.32 616.66 322.86 623.73 330.42 629.89 338.02 634.68 345.62 637.87 353.18 639.67 360.76 639.67 368.29 637.82 375.71 634.62 383.15 629.79 390.49 623.53 397.67 616.58 404.86 608.99 411.73 601.16 418.26 593.64 424.78 586.5 430.96 580 436.79 574.57 442.61 570.11 448.07 566.66 453.19 563.92 460.7 564.26 474.16 566.35 480.25 569.3 486.27 573.89 497.95 574.59 503.91 573.91 510.47 567.33 525.18 561.5 533.61 556.85 539.85 551.48 546.43 545.5 553.34 539.15 560.69 532.33 568.29 525.14 576.05 517.74 584.03 510.08 591.97 502.27 599.73 494.36 607.33 486.38 614.46 478.39 620.93 470.37 626.82 462.39 631.75 454.5 635.55 446.61 638.42 438.82 639.97 431.17 640.11 423.53 639.22 416.02 636.92 408.65 633.26 401.29 628.78 394.24 623.31 387.48 617.1 380.71 610.59 374.22 603.72 367.99 596.71 361.72 589.97 355.69 583.4 349.89 577.17 344 571.59 338.3 566.5 332.76 561.95 327.1 558.19 321.55 554.97 316.09 552.24 310.45 550.24 304.86 548.58 299.29 547.19 293.5 546.31 287.69 545.5 281.85 544.66 275.78 544.07 269.67 543.28 263.53 542.19 257.21 541.15 250.9 539.69 244.63 537.77 238.29 535.76 232.08 533.22 226.08 530.17 220.17 526.95 214.59 523.21 209.43 518.97 204.54 514.57 200.19 509.7 196.47 504.4 193.17 498.97 190.57 493.17 188.72 487.03 187.33 480.81 186.67 474.31 186.75 467.55 187.17 460.76 188.2 453.76 189.8 446.58 191.48 439.39 193.53 432.05 195.85 424.57 197.94 417.09 200.06 409.65 202.13 402.28 203.75 394.9 205.25 387.57 206.61 380.29 207.47 372.99 208.24 365.72 208.94 358.49 209.28 351.21 209.68 343.94 210.2 336.68 210.58 329.36 211.23 322.03 212.22 314.69 213.28 307.29 214.81 299.88 216.83 292.49 219.09 285.04 221.9 277.63 225.28 270.28 228.97 262.94 233.21 255.71 237.97 248.65 243.04 241.69 248.59 234.98 254.55 228.58 260.76 222.4 267.32 216.63 274.16 211.36 281.18 206.41 288.42 202.04 295.81 198.32 303.31 195.01 310.92 192.4 318.59 190.52 326.32 189.07 334.08 188.33 341.84 188.3 349.63 188.59 357.4 189.5 365.12 190.98 372.86 192.57 380.54 194.56 388.15 196.89 395.76 199.04 403.28 201.33 410.68 203.68" stroke-dasharray="11 10" transform="rotate(28.28, 400, 400)" opacity="0.91"></path><path d="M403.62 214.98C410.52 216.85 417.09 218.6 423.32 220.2 432.47 221.78 448.89 223.46 456.12 223.74 468.78 223.47 484.58 224.67 489.09 226.3 493.82 228.6 504.04 235.97 509.98 241.06 514.6 244.85 519.63 249.1 525.13 253.78 531.26 258.67 537.9 263.95 545.01 269.55 552.66 275.34 560.66 281.4 568.9 287.7 577.35 294.12 585.73 300.73 593.84 307.47 601.62 314.29 608.73 321.21 614.92 328.18 620.22 335.2 624.24 342.25 626.78 349.27 628.08 356.33 627.77 363.34 625.82 370.28 622.69 377.23 618.12 384.1 612.28 390.84 605.82 397.58 598.76 404.03 591.44 410.18 584.35 416.33 577.53 422.17 571.2 427.71 565.75 433.25 561.1 438.49 557.3 443.44 553.73 450.76 551.9 464.25 552.92 470.55 555 476.91 558.85 489.62 559.77 496.24 559.76 503.45 555.53 519.42 551.23 528.34 547.71 534.79 543.5 541.51 538.68 548.47 533.52 555.74 527.85 563.16 521.75 570.64 515.43 578.22 508.78 585.68 501.9 592.87 494.88 599.85 487.71 606.32 480.44 612.12 473.12 617.36 465.77 621.68 458.42 624.95 451.06 627.39 443.73 628.62 436.48 628.58 429.23 627.62 422.05 625.4 414.97 621.96 407.89 617.78 401.07 612.71 394.49 606.93 387.9 600.87 381.53 594.44 375.38 587.83 369.19 581.4 363.19 575.06 357.36 568.96 351.46 563.38 345.69 558.19 340.03 553.44 334.26 549.37 328.56 545.75 322.92 542.57 317.12 540.04 311.34 537.86 305.56 535.94 299.61 534.52 293.63 533.23 287.64 531.98 281.47 531.02 275.29 529.95 269.12 528.69 262.83 527.55 256.59 526.09 250.46 524.29 244.32 522.47 238.36 520.22 232.66 517.53 227.1 514.76 221.91 511.52 217.16 507.83 210.75 501.91 201.5 487.82 198.89 479.76 197.8 474.22 197.39 468.35 197.66 462.2 198.23 456.02 199.37 449.59 201.02 442.93 202.74 436.26 204.79 429.38 207.1 422.32 209.19 415.25 211.32 408.17 213.4 401.1 215.07 394.02 216.63 386.94 218.05 379.87 219.01 372.79 219.87 365.7 220.65 358.61 221.07 351.5 221.51 344.37 222.04 337.25 222.37 330.08 222.93 322.9 223.75 315.73 224.58 308.53 225.8 301.33 227.44 294.18 229.25 287.01 231.55 279.91 234.34 272.92 237.39 265.97 240.96 259.18 245.01 252.6 249.34 246.15 254.13 239.98 259.34 234.16 264.78 228.57 270.6 223.4 276.71 218.73 283.02 214.38 289.57 210.6 296.32 207.42 303.2 204.63 310.21 202.49 317.33 201.02 324.52 199.92 331.76 199.47 339.03 199.66 346.34 200.12 353.64 201.12 360.9 202.64 368.18 204.23 375.41 206.18 382.54 208.43 389.68 210.51 396.72 212.72 403.61 214.98" stroke-dasharray="10 4" transform="rotate(32.32, 400, 400)" opacity="0.30"></path><path d="M396.16 226.29C402.55 228.1 408.65 229.83 414.43 231.43 422.92 233.08 438.24 235.07 445.07 235.55 457.41 235.57 473.86 236.65 479.01 237.97 484.52 239.81 496.64 245.84 503.61 250.08 508.84 253.25 514.44 256.84 520.44 260.84 526.93 265.02 533.82 269.57 541.04 274.45 548.62 279.49 556.41 284.83 564.27 290.4 572.19 296.1 579.91 302 587.26 308.07 594.22 314.21 600.46 320.48 605.79 326.83 610.28 333.23 613.58 339.69 615.54 346.15 616.4 352.64 615.83 359.13 613.8 365.57 610.77 372.02 606.46 378.42 601.02 384.72 595.04 391.03 588.51 397.09 581.69 402.91 575.04 408.72 568.56 414.28 562.44 419.59 557.05 424.91 552.29 430 548.23 434.85 543.96 442.09 540.18 455.77 540.15 462.36 541.28 469.08 543.98 482.77 544.82 489.96 545.12 497.7 542.48 514.57 539.38 523.79 536.79 530.31 533.56 537.03 529.76 543.89 525.67 550.96 521.06 558.09 516 565.19 510.73 572.3 505.09 579.21 499.14 585.8 493.06 592.14 486.75 597.95 480.27 603.1 473.72 607.71 467.06 611.47 460.33 614.25 453.57 616.28 446.78 617.22 439.98 617.02 433.19 616.01 426.4 613.88 419.64 610.65 412.88 606.78 406.31 602.08 399.92 596.73 393.52 591.12 387.29 585.12 381.21 578.91 375.1 572.83 369.13 566.76 363.27 560.84 357.35 555.34 351.51 550.12 345.75 545.25 339.9 540.95 334.08 537.02 328.3 533.47 322.39 530.49 316.48 527.83 310.58 525.43 304.54 523.5 298.49 521.73 292.44 520.04 286.28 518.67 280.14 517.25 274.04 515.74 267.9 514.38 261.85 512.82 255.96 510.99 247.3 508.15 231.66 500.68 224.98 495.95 219.27 490.72 211.3 478.23 209.2 471.03 208.31 463.42 209.99 446.61 212.29 437.51 214.02 431.34 216.07 424.93 218.36 418.3 220.44 411.67 222.56 404.98 224.64 398.24 226.35 391.51 227.96 384.73 229.45 377.93 230.5 371.13 231.46 364.29 232.34 357.44 232.85 350.57 233.36 343.68 233.93 336.79 234.27 329.88 234.78 322.97 235.5 316.07 236.17 309.17 237.16 302.3 238.49 295.5 239.92 288.73 241.78 282.05 244.07 275.5 246.55 269.04 249.5 262.77 252.89 256.74 256.51 250.86 260.57 245.29 265.03 240.07 269.7 235.1 274.75 230.55 280.11 226.49 285.65 222.73 291.46 219.5 297.49 216.86 303.65 214.55 309.99 212.84 316.45 211.75 323 210.97 329.64 210.77 336.32 211.15 343.05 211.74 349.8 212.83 356.51 214.36 363.27 215.93 369.97 217.83 376.59 219.99 383.22 221.99 389.75 224.11 396.15 226.29" stroke-dasharray="6 6" transform="rotate(36.36, 400, 400)" opacity="0.94"></path><path d="M389.12 237.59C397.86 240.2 414.02 244.35 421.42 245.83 431.11 246.56 439.8 247.12 447.61 247.76 455.71 247.61 463.38 248.24 470.94 249.91 479.49 251.72 488.65 255.03 498.77 259.85 510.48 265.25 523.43 272.2 537.38 280.48 552.2 289.29 566.9 299.21 580.31 309.91 592 320.91 600.33 332.45 604.15 344.22 604.63 350.14 603.84 356.09 601.78 362.04 598.86 367.99 594.81 373.92 589.77 379.82 584.25 385.71 578.22 391.41 571.9 396.92 565.7 402.43 559.58 407.75 553.72 412.88 543.85 423.18 536.21 432.85 531 441.98 528.93 451.43 528.44 460.7 528.68 469.98 530.14 480.02 530.72 490.51 529.8 501.56 528.36 513.64 524.75 526.37 519.01 539.49 512.39 553.09 503.89 566.36 493.91 578.5 483.44 589.53 471.94 598.13 459.82 603.43 453.71 605.09 447.49 605.78 441.2 605.44 434.9 604.41 428.54 602.37 422.15 599.35 415.75 595.76 409.46 591.44 403.3 586.51 397.12 581.32 391.04 575.76 385.07 569.97 373.04 558.68 361.28 547.58 349.75 537.34 337.92 528.95 326.11 521.77 314.35 515.69 302.26 511.32 290.21 507.42 278.44 503.54 266.71 500.44 255.64 496.63 245.72 491.83 236.61 487.08 229.25 481.01 224.07 473.57 220.28 465.98 218.84 457.04 219.78 446.87 220.6 441.75 221.89 436.34 223.6 430.66 225.34 424.98 227.36 419.03 229.61 412.84 231.67 406.65 233.77 400.36 235.85 394.01 237.58 387.66 239.24 381.24 240.79 374.77 242.69 361.85 244.3 348.74 245.84 335.61 246.44 322.52 247.7 309.46 249.92 296.71 252.29 284.19 256.19 272.23 261.63 261.21 267.79 250.87 275.53 241.89 284.58 234.67 294.29 228.57 305.04 224.52 316.47 222.71 328.25 221.95 340.43 223.15 352.67 226.12 358.83 227.67 364.98 229.5 371.06 231.57 377.16 233.48 383.19 235.5 389.11 237.59" stroke-dasharray="8 11" transform="rotate(40.400000000000006, 400, 400)" opacity="0.43"></path><path d="M383.27 248.9C394.21 251.96 404.34 254.76 413.64 257.16 422.98 258.14 431.64 258.97 439.75 259.84 448.21 259.89 456.53 260.56 464.99 262.07 474.35 263.54 484.38 266.27 495.25 270.32 507.34 274.76 520.33 280.6 533.85 287.67 547.75 295.17 561.12 303.76 572.93 313.17 582.99 322.85 589.85 333.15 592.62 343.8 592.12 354.55 587.29 365.51 578.51 376.5 568.14 387.49 556.5 397.97 545.02 407.9 535.34 417.9 527.39 427.51 521.43 436.81 518.2 446.42 516.46 456.02 515.58 465.74 516.07 476.1 516.14 486.9 515.19 498.16 514.14 510.17 511.37 522.6 506.81 535.14 501.64 547.87 494.73 560.03 486.34 570.93 477.52 580.68 467.54 588.11 456.72 592.5 445.78 594.58 434.21 593.12 422.22 588.04 410.22 581.02 398.38 571.68 386.76 560.99 375.08 550.39 363.48 539.76 352 529.68 340.33 521.08 328.65 513.43 317.05 506.7 305.29 501.5 293.68 496.79 282.49 492.24 271.52 488.53 261.35 484.37 252.4 479.48 244.33 474.81 237.96 469.06 233.67 462.17 230.63 455.22 229.74 447.05 230.98 437.73 232.93 428.35 236.36 417.86 240.86 406.36 244.68 394.86 248.52 382.94 252.06 370.8 254.18 358.68 256.02 346.38 257.73 334.08 258.48 321.88 259.71 309.79 261.67 298.08 263.58 286.69 266.75 275.93 271.24 266.17 276.23 257.1 282.66 249.37 290.33 243.32 298.53 238.27 307.8 235.08 317.81 233.91 328.15 233.58 338.98 234.99 350.01 237.95 361.16 240.89 372.33 244.66 383.26 248.89" stroke-dasharray="7 0" transform="rotate(44.44, 400, 400)" opacity="0.56"></path><path d="M379.27 260.2C389.37 263.16 398.95 265.95 407.98 268.43 417.07 269.64 425.79 270.73 434.23 271.83 443.03 272.12 451.92 272.9 461.08 274.35 471.01 275.63 481.57 277.95 492.79 281.39 504.87 285.06 517.49 289.96 530.24 295.99 542.99 302.34 554.9 309.72 565.11 317.96 573.59 326.39 579.1 335.51 580.95 345.12 580.04 354.78 575.37 364.81 567.26 375.04 557.78 385.28 547.08 395.23 536.32 404.86 526.96 414.57 518.86 424.09 512.36 433.48 508.17 443.15 505.31 452.94 503.35 462.9 502.79 473.38 502.13 484.23 500.86 495.4 499.8 507.08 497.46 518.97 493.67 530.73 489.53 542.44 483.85 553.43 476.77 563.06 469.36 571.58 460.76 577.9 451.17 581.47 441.47 583.04 430.97 581.48 419.84 576.74 408.7 570.32 397.49 561.79 386.32 551.96 375.11 542.1 363.87 532.01 352.66 522.23 341.36 513.6 330.06 505.65 318.88 498.47 307.7 492.58 296.78 487.16 286.39 481.99 276.36 477.63 267.21 473.03 259.33 467.94 252.32 463.15 246.96 457.53 243.52 450.99 241.18 444.46 240.78 436.9 242.28 428.3 244.35 419.66 247.74 410 252.12 399.38 255.87 388.76 259.68 377.72 263.27 366.46 265.57 355.26 267.64 343.88 269.56 332.57 270.52 321.4 271.81 310.41 273.65 299.88 275.27 289.7 277.91 280.22 281.65 271.75 285.68 263.93 290.98 257.41 297.41 252.46 304.25 248.37 312.12 245.96 320.78 245.34 329.71 245.37 339.23 246.91 349.08 249.82 359.03 252.63 369.16 256.19 379.27 260.2" stroke-dasharray="0 5" transform="rotate(48.48, 400, 400)" opacity="0.51"></path><path d="M377.54 271.51C386.89 274.36 395.97 277.11 404.77 279.65 413.65 281.06 422.41 282.39 431.12 283.73 440.15 284.29 449.41 285.22 459.01 286.7 469.18 287.9 479.9 289.96 491.07 292.96 502.75 296.04 514.66 300.19 526.37 305.36 537.79 310.72 548.18 317.07 556.8 324.24 563.8 331.57 568.1 339.62 569.17 348.24 567.93 356.9 563.45 366.05 556 375.56 547.4 385.07 537.62 394.5 527.63 403.8 518.68 413.18 510.61 422.54 503.77 431.91 498.82 441.51 495.01 451.29 492.05 461.26 490.45 471.61 488.95 482.26 487.16 493.08 485.79 504.19 483.51 515.33 480.12 526.14 476.6 536.74 471.79 546.49 465.72 554.89 459.44 562.21 452 567.51 443.53 570.34 434.97 571.46 425.51 569.84 415.28 565.43 405.04 559.6 394.57 551.86 384 542.89 373.43 533.79 362.73 524.32 352.04 514.96 341.34 506.45 330.65 498.4 320.16 490.93 309.79 484.54 299.76 478.55 290.36 472.84 281.4 467.88 273.37 462.82 266.61 457.45 260.67 452.44 256.28 446.82 253.64 440.48 251.95 434.22 251.98 427.11 253.69 419.11 255.83 411.11 259.15 402.21 263.37 392.45 267.03 382.69 270.79 372.57 274.4 362.28 276.87 352.04 279.15 341.71 281.29 331.49 282.5 321.44 283.93 311.65 285.77 302.37 287.26 293.44 289.55 285.24 292.74 278.05 296.04 271.45 300.42 266.07 305.82 262.13 311.48 258.89 318.12 257.15 325.55 256.98 333.19 257.29 341.48 258.92 350.23 261.73 359.05 264.4 368.2 267.73 377.54 271.51" stroke-dasharray="6 0" transform="rotate(52.52, 400, 400)" opacity="0.67"></path><path d="M378.29 282.81C386.93 285.54 395.55 288.24 404.11 290.79 412.74 292.38 421.45 293.92 430.27 295.48 439.34 296.32 448.72 297.45 458.41 299.01 468.5 300.24 478.98 302.17 489.71 304.86 500.66 307.54 511.58 311.12 522.05 315.59 532.04 320.17 540.89 325.64 548 331.92 553.64 338.28 556.86 345.38 557.28 353.11 555.79 360.86 551.55 369.19 544.75 378 536.98 386.81 528.11 395.71 518.92 404.63 510.47 413.61 502.59 422.71 495.59 431.89 490.12 441.26 485.56 450.83 481.75 460.56 479.18 470.55 476.83 480.74 474.41 490.96 472.52 501.31 470.03 511.51 466.74 521.25 463.49 530.67 459.21 539.19 453.87 546.38 448.42 552.58 441.9 556.94 434.4 559.11 426.82 559.84 418.34 558.2 409.03 554.13 399.72 548.86 390.08 541.88 380.26 533.76 370.47 525.45 360.52 516.66 350.56 507.82 340.67 499.58 330.83 491.61 321.25 484.05 311.87 477.34 302.91 470.96 294.63 464.83 286.83 459.38 279.97 453.9 274.32 448.27 269.43 442.99 265.95 437.28 264.06 431.06 262.94 424.96 263.33 418.19 265.18 410.71 267.37 403.25 270.59 395.04 274.63 386.11 278.17 377.19 281.85 368 285.44 358.72 288.05 349.5 290.52 340.26 292.87 331.21 294.35 322.32 295.99 313.75 297.91 305.75 299.41 298.07 301.52 291.13 304.35 285.15 308.99 277.51 322.93 269.23 332.12 268.82 338.63 269.35 345.83 271 353.59 273.68 361.38 276.18 369.65 279.28 378.29 282.81" stroke-dasharray="6 6" transform="rotate(56.56, 400, 400)" opacity="0.16"></path><path d="M381.43 294.12C389.41 296.7 397.55 299.32 405.79 301.87 414.1 303.6 422.61 305.32 431.31 307.08 440.2 308.18 449.39 309.53 458.83 311.21 468.5 312.54 478.41 314.44 488.36 316.96 498.32 319.37 508.04 322.56 517.13 326.51 525.65 330.48 532.99 335.25 538.69 340.77 543.11 346.33 545.4 352.61 545.28 359.55 543.63 366.49 539.65 374.05 533.49 382.18 526.54 390.31 518.56 398.64 510.18 407.1 502.32 415.6 494.75 424.3 487.79 433.12 482.01 442.07 476.92 451.23 472.45 460.49 469.04 469.9 465.91 479.4 462.84 488.82 460.33 498.24 457.47 507.39 454.06 515.98 450.82 524.19 446.79 531.49 441.92 537.52 437.01 542.68 431.2 546.2 424.51 547.79 417.77 548.19 410.18 546.55 401.79 542.82 393.4 538.1 384.66 531.86 375.72 524.57 366.83 517.05 357.79 509 348.77 500.77 339.85 492.94 331.04 485.22 322.54 477.74 314.29 470.92 306.5 464.33 299.43 457.96 292.82 452.14 287.12 446.35 282.56 440.51 278.66 434.99 276.02 429.2 274.78 423.06 274.15 417.06 274.83 410.56 276.78 403.55 278.96 396.56 282.05 388.99 285.88 380.88 289.28 372.76 292.85 364.5 296.39 356.25 299.1 348.04 301.73 339.91 304.27 332.04 306.02 324.31 307.89 316.97 309.96 310.2 312.61 300.84 320.39 286.96 325.98 282.98 332.38 280.77 349.03 282.34 359.07 285.66 365.97 287.98 373.45 290.84 381.43 294.12" stroke-dasharray="8 9" transform="rotate(60.599999999999994, 400, 400)" opacity="0.22"></path><path d="M386.61 305.42C393.97 307.85 401.58 310.37 409.39 312.88 417.26 314.71 425.39 316.57 433.73 318.49 442.18 319.83 450.89 321.39 459.75 323.22 468.71 324.69 477.75 326.62 486.66 329.06 495.44 331.35 503.82 334.27 511.48 337.83 518.55 341.37 524.47 345.6 528.89 350.51 532.22 355.42 533.72 361.01 533.19 367.24 531.45 373.47 527.76 380.32 522.23 387.78 516.06 395.23 508.95 402.95 501.4 410.85 494.19 418.78 487.06 426.94 480.31 435.23 474.43 443.6 469.03 452.13 464.12 460.71 460.07 469.34 456.29 477.98 452.63 486.44 449.52 494.8 446.22 502.82 442.58 510.22 439.17 517.24 435.19 523.36 430.59 528.32 426.02 532.52 420.72 535.28 414.69 536.38 408.64 536.51 401.85 534.91 394.35 531.52 386.86 527.32 379.06 521.8 371.1 515.31 363.18 508.6 355.17 501.32 347.22 493.77 339.39 486.47 331.73 479.14 324.42 471.93 317.36 465.19 310.8 458.58 304.95 452.15 299.51 446.15 294.93 440.2 291.39 434.25 288.38 428.58 286.49 422.75 285.8 416.72 285.59 410.81 286.49 404.58 288.48 398 290.6 391.44 293.53 384.48 297.14 377.15 300.36 369.81 303.79 362.46 307.25 355.21 310.01 348 312.75 340.96 315.44 334.23 318.5 324.54 324.66 308.13 328.31 301.94 332.14 297.09 342.81 292.62 349.78 293.06 354.64 293.8 360.18 295.36 366.34 297.68 372.49 299.8 379.26 302.41 386.61 305.42" stroke-dasharray="2 9" transform="rotate(64.64, 400, 400)" opacity="0.77"></path><path d="M393.27 316.73C399.99 318.99 407.02 321.38 414.28 323.82 421.58 325.7 429.13 327.65 436.86 329.69 444.65 331.24 452.62 332.98 460.62 334.95 468.63 336.58 476.59 338.59 484.28 341.01 491.77 343.25 498.77 346.01 505 349.31 513 354.45 521.43 367.67 521.02 375.77 519.26 381.36 515.88 387.56 510.97 394.33 505.56 401.11 499.3 408.17 492.58 415.41 486.06 422.68 479.49 430.16 473.09 437.76 467.32 445.39 461.84 453.13 456.7 460.86 452.23 468.57 447.98 476.21 443.88 483.6 440.25 490.85 436.54 497.69 432.65 503.92 426.99 512.28 413.67 523.15 405.72 524.88 400.24 524.8 394.17 523.26 387.54 520.21 380.91 516.52 374.05 511.68 367.11 505.99 360.22 500.07 353.29 493.59 346.49 486.78 339.8 480.11 333.33 473.31 327.25 466.52 321.39 460.04 316.04 453.62 311.36 447.31 307.02 441.32 303.47 435.37 300.84 429.46 298.62 423.77 297.37 418 297.14 412.14 297.25 406.38 298.3 400.43 300.26 394.29 302.31 388.17 305.05 381.81 308.39 375.23 311.42 368.64 314.67 362.16 318 355.88 320.77 349.62 323.57 343.6 326.36 337.95 329.73 329.83 336.44 316.47 340.18 311.62 348.88 306.31 366.88 306.9 374.89 309.73 380.42 311.63 386.54 313.99 393.27 316.73" stroke-dasharray="10 8" transform="rotate(68.68, 400, 400)" opacity="0.71"></path><path d="M400.66 328.03C412.83 331.74 426.2 336.06 440.02 340.66 453.88 343.66 467.96 347.58 480.95 352.62 493 356.94 502.54 363.1 507.83 371.16 510.42 379.07 507.78 389.16 499.72 401.33 490.09 413.51 478.21 426.73 466.07 440.26 455.58 453.8 445.7 467.46 436.59 480.13 429 492.14 421.03 502.2 412.24 508.85 403.78 513.5 393.72 513.75 382.09 508.91 370.46 502.06 358.47 491.78 347.06 479.77 336.05 467.94 326.27 455.51 318.77 443.31 312.36 431.99 308.83 420.61 308.77 409.33 309.62 398.39 313.36 386.96 319.65 375.26 324.91 363.56 330.9 352.68 336.98 343.25 341.25 334.08 346.07 326.81 351.65 322.09 356.29 317.93 362.55 316.47 370.63 317.88 378.48 319.28 388.49 322.78 400.66 328.03" stroke-dasharray="3 9" transform="rotate(72.72, 400, 400)" opacity="0.79"></path><path d="M407.99 339.34C418.82 342.74 430.56 346.87 442.49 351.38 454.35 354.64 466.05 358.73 476.45 363.73 485.95 368.09 493.1 373.91 496.64 381.27 498.16 388.46 495.49 397.46 488.47 408.23 480.26 418.99 469.99 430.57 459.19 442.28 449.4 453.92 439.79 465.44 430.7 475.85 422.72 485.65 414.57 493.6 406.07 498.59 397.88 502.05 388.71 501.9 378.62 497.6 368.53 491.78 358.53 483.04 349.32 472.69 340.42 462.31 332.8 451.13 327.27 439.97 322.49 429.35 320.17 418.65 320.7 408.16 321.77 397.93 325.25 387.52 330.9 377.25 335.74 366.98 341.4 357.79 347.29 350.09 351.8 342.56 356.84 336.8 362.49 333.26 367.31 330.04 373.39 329.07 380.88 330.45 388.12 331.69 397.15 334.72 407.99 339.34" stroke-dasharray="7 6" transform="rotate(76.76, 400, 400)" opacity="0.18"></path><path d="M414.43 350.64C423.86 353.7 433.82 357.54 443.68 361.83 453.42 365.19 462.71 369.32 470.64 374.18 477.82 378.53 482.91 384.02 485.04 390.7 485.76 397.21 483.2 405.16 477.21 414.47 470.38 423.78 461.71 433.63 452.38 443.39 443.6 453.07 434.68 462.42 426.05 470.66 418.16 478.37 410.18 484.42 402.16 488 394.39 490.46 386.12 490.03 377.5 486.3 368.87 481.46 360.71 474.19 353.5 465.5 346.48 456.66 340.75 446.96 336.84 437.11 333.4 427.55 332 417.85 332.89 408.41 334.05 399.14 337.18 389.89 342.16 381.04 346.51 372.18 351.71 364.52 357.27 358.31 361.82 352.19 366.91 347.67 372.49 345.02 377.41 342.51 383.29 341.84 390.22 343.09 396.92 344.12 405 346.67 414.43 350.64" stroke-dasharray="9 10" transform="rotate(80.80000000000001, 400, 400)" opacity="0.39"></path><path d="M419.28 361.95C427.22 364.62 435.33 368.06 443.09 372 450.72 375.3 457.73 379.28 463.44 383.86 468.6 388.06 472 393.15 473.08 399.08 473.25 404.89 470.91 411.76 465.96 419.57 460.43 427.39 453.35 435.45 445.57 443.26 438.06 450.98 430.19 458.25 422.43 464.47 415.1 470.28 407.7 474.68 400.43 477.09 393.33 478.74 386.06 478.14 378.85 475 371.64 471.09 365.14 465.24 359.65 458.17 354.27 450.93 350.09 442.85 347.44 434.52 345.05 426.31 344.29 417.92 345.32 409.77 346.45 401.7 349.17 393.76 353.41 386.32 357.21 378.88 361.84 372.61 366.89 367.67 373.72 360.99 389.11 354.99 398.16 355.76 404.27 356.56 411.34 358.64 419.28 361.95" stroke-dasharray="3 4" transform="rotate(84.84, 400, 400)" opacity="0.42"></path><path d="M422.01 373.25C434.8 377.24 446.85 384.2 454.88 392.67 461.49 400.14 462.06 410.55 454.7 423.13 445.91 435.7 432.83 448.13 419.57 457.23 407.15 465.26 394.18 468.25 382.54 463.69 370.89 457.24 362.52 445.31 358.94 431.99 355.75 418.76 357.54 404.71 364.67 392.69 370.63 380.67 379.51 372.75 389.36 369.68 398.06 366.46 409.22 367.6 422.01 373.25" stroke-dasharray="7 2" transform="rotate(88.88, 400, 400)" opacity="1.00"></path><path d="M422.32 384.56C431.91 387.78 440.13 393.56 445.03 400.54 449.18 406.98 449.03 415.4 443.45 424.85 437.08 434.3 427.35 443 417.18 448.95 407.31 454.28 396.99 455.95 388.14 452.39 379.28 447.76 373.39 439.13 371.16 429.31 369 419.41 370.48 408.74 375.92 399.63 380.68 390.52 387.96 384.58 396.07 382.24 403.59 379.69 412.72 380.37 422.32 384.56" stroke-dasharray="10 8" transform="rotate(92.92, 400, 400)" opacity="0.26"></path><path d="M420.17 395.86C432.9 399.99 439.21 412 432.19 424.61 423.82 437.21 407.06 445.49 395.05 441.08 383.04 434.82 379.63 418.87 387.17 406.6 393.49 394.32 407.42 390 420.17 395.86" stroke-dasharray="1 3" transform="rotate(96.96, 400, 400)" opacity="0.84"></path></g></svg>