<svg xmlns="http://www.w3.org/2000/svg" version="1.1" xmlns:xlink="http://www.w3.org/1999/xlink" xmlns:svgjs="http://svgjs.dev/svgjs" viewBox="0 0 1422 800"><defs><linearGradient x1="50%" y1="0%" x2="50%" y2="100%" id="oooscillate-grad"><stop stop-color="hsl(257, 79%, 60%)" stop-opacity="1" offset="0%"></stop><stop stop-color="hsl(244, 90%, 56%)" stop-opacity="1" offset="100%"></stop></linearGradient></defs><g stroke-width="2" stroke="url(#oooscillate-grad)" fill="none" stroke-linecap="round"><path d="M 0 680 Q 355.5 -100 711 400 Q 1066.5 900 1422 680" opacity="0.79"></path><path d="M 0 660 Q 355.5 -100 711 400 Q 1066.5 900 1422 660" opacity="0.22"></path><path d="M 0 640 Q 355.5 -100 711 400 Q 1066.5 900 1422 640" opacity="0.24"></path><path d="M 0 620 Q 355.5 -100 711 400 Q 1066.5 900 1422 620" opacity="0.62"></path><path d="M 0 600 Q 355.5 -100 711 400 Q 1066.5 900 1422 600" opacity="0.47"></path><path d="M 0 580 Q 355.5 -100 711 400 Q 1066.5 900 1422 580" opacity="0.69"></path><path d="M 0 560 Q 355.5 -100 711 400 Q 1066.5 900 1422 560" opacity="0.76"></path><path d="M 0 540 Q 355.5 -100 711 400 Q 1066.5 900 1422 540" opacity="0.18"></path><path d="M 0 520 Q 355.5 -100 711 400 Q 1066.5 900 1422 520" opacity="0.96"></path><path d="M 0 500 Q 355.5 -100 711 400 Q 1066.5 900 1422 500" opacity="0.93"></path><path d="M 0 480 Q 355.5 -100 711 400 Q 1066.5 900 1422 480" opacity="0.59"></path><path d="M 0 460 Q 355.5 -100 711 400 Q 1066.5 900 1422 460" opacity="0.44"></path><path d="M 0 440 Q 355.5 -100 711 400 Q 1066.5 900 1422 440" opacity="0.43"></path><path d="M 0 420 Q 355.5 -100 711 400 Q 1066.5 900 1422 420" opacity="0.86"></path><path d="M 0 400 Q 355.5 -100 711 400 Q 1066.5 900 1422 400" opacity="0.71"></path><path d="M 0 380 Q 355.5 -100 711 400 Q 1066.5 900 1422 380" opacity="0.33"></path><path d="M 0 360 Q 355.5 -100 711 400 Q 1066.5 900 1422 360" opacity="0.65"></path><path d="M 0 340 Q 355.5 -100 711 400 Q 1066.5 900 1422 340" opacity="0.39"></path><path d="M 0 320 Q 355.5 -100 711 400 Q 1066.5 900 1422 320" opacity="0.56"></path><path d="M 0 300 Q 355.5 -100 711 400 Q 1066.5 900 1422 300" opacity="0.77"></path><path d="M 0 280 Q 355.5 -100 711 400 Q 1066.5 900 1422 280" opacity="0.41"></path><path d="M 0 260 Q 355.5 -100 711 400 Q 1066.5 900 1422 260" opacity="0.77"></path><path d="M 0 240 Q 355.5 -100 711 400 Q 1066.5 900 1422 240" opacity="0.54"></path><path d="M 0 220 Q 355.5 -100 711 400 Q 1066.5 900 1422 220" opacity="0.44"></path><path d="M 0 200 Q 355.5 -100 711 400 Q 1066.5 900 1422 200" opacity="0.15"></path><path d="M 0 180 Q 355.5 -100 711 400 Q 1066.5 900 1422 180" opacity="0.20"></path><path d="M 0 160 Q 355.5 -100 711 400 Q 1066.5 900 1422 160" opacity="0.81"></path><path d="M 0 140 Q 355.5 -100 711 400 Q 1066.5 900 1422 140" opacity="0.39"></path><path d="M 0 120 Q 355.5 -100 711 400 Q 1066.5 900 1422 120" opacity="0.79"></path><path d="M 0 100 Q 355.5 -100 711 400 Q 1066.5 900 1422 100" opacity="0.54"></path><path d="M 0 80 Q 355.5 -100 711 400 Q 1066.5 900 1422 80" opacity="0.62"></path><path d="M 0 60 Q 355.5 -100 711 400 Q 1066.5 900 1422 60" opacity="0.44"></path><path d="M 0 40 Q 355.5 -100 711 400 Q 1066.5 900 1422 40" opacity="0.30"></path></g></svg>